PathFileType	4	(X/Y/Z)	./resultDataOpenSim/trcMotMarkerGrf/sub10/qtm-12-07.trc
DataRate	CameraRate	NumFrames	NumMarkers	Units	OrigDataRate	OrigDataStartFrame	OrigNumFrames
250.000000	250.000000	10	24	m	250.000000	189	503
Frame#	Time	L.Toe.Tip			R.Toe.Tip			L.Ankle.Lat			R.Ankle.Lat			L.Ankle.Med			R.Ankle.Med			L.Heel			R.Heel			L.Knee.Lat			R.Knee.Lat			L.Knee.Med			R.Knee.Med			L.Thigh.Upper			R.Thigh.Upper			L.ASIS			R.ASIS			V.Sacral			L.Acromium			R.Acromium			C7			L.Elbow			R.Elbow			L.Wrist.Lat			R.Wrist.Lat
		X1	Y1	Z1	X2	Y2	Z2	X3	Y3	Z3	X4	Y4	Z4	X5	Y5	Z5	X6	Y6	Z6	X7	Y7	Z7	X8	Y8	Z8	X9	Y9	Z9	X10	Y10	Z10	X11	Y11	Z11	X12	Y12	Z12	X13	Y13	Z13	X14	Y14	Z14	X15	Y15	Z15	X16	Y16	Z16	X17	Y17	Z17	X18	Y18	Z18	X19	Y19	Z19	X20	Y20	Z20	X21	Y21	Z21	X22	Y22	Z22	X23	Y23	Z23	X24	Y24	Z24

189	0.752	0.041124004	0.017129755	-0.074905931	-0.66604537	0.041182918	0.06374622	-0.093911433	0.04531102	-0.10499803	-0.7188782	0.16839374	0.11059721	-0.089309254	0.064838672	-0.02109241	-0.67905384	0.16239602	0.031959439	-0.16097413	0.015745535	-0.064879642	-0.76278745	0.1927773	0.061171985	-0.036096591	0.43047888	-0.12656936	-0.39565435	0.39575403	0.13467847	-0.027953677	0.41132236	-0.005827427	-0.36178765	0.3794098	0.011602128	-0.1708246	0.79166672	-0.18552602	-0.29937275	0.77926272	0.18666747	-0.14911116	0.89499639	-0.10096134	-0.19688206	0.86601785	0.13419108	-0.36754068	0.89499733	-0.030798952	-0.26045666	1.3438679	-0.15709926	-0.27902648	1.3506474	0.17136528	-0.35728714	1.3726306	-0.0024024458	-0.40357265	1.036157	-0.19410254	-0.33469781	0.99301118	0.21580801	-0.36266891	0.80197072	-0.23586683	-0.11288199	0.87569051	0.20891537
190	0.756	0.04114403	0.017049622	-0.07486196	-0.66230076	0.04293607	0.064050656	-0.093754397	0.04499051	-0.10495485	-0.70872735	0.17307194	0.1110186	-0.089240971	0.064439228	-0.020890747	-0.66903238	0.1654814	0.032690275	-0.16093098	0.015564808	-0.064955497	-0.75139096	0.19930779	0.061194527	-0.033681927	0.42933938	-0.12667801	-0.38259367	0.39416276	0.13542004	-0.025413031	0.41001916	-0.0057758977	-0.34702372	0.37590195	0.012500305	-0.16474981	0.7925018	-0.18629497	-0.29172969	0.77849754	0.18569905	-0.14321233	0.8960686	-0.10182539	-0.19022175	0.86644366	0.13307563	-0.36157348	0.89581801	-0.030167409	-0.25339241	1.3444601	-0.15768935	-0.27249065	1.3511657	0.17042148	-0.35042415	1.3731073	-0.003141924	-0.39611326	1.0365933	-0.19534188	-0.33020178	0.99409064	0.21502951	-0.35456539	0.80252431	-0.2375173	-0.10890825	0.87555118	0.20913309
191	0.76	0.041169074	0.016980838	-0.074818024	-0.65815761	0.044932669	0.064465653	-0.093545117	0.044697441	-0.10490504	-0.6980083	0.17770203	0.11145763	-0.089150064	0.064072225	-0.020701645	-0.65856828	0.16850855	0.033323083	-0.1609024	0.015433661	-0.065045611	-0.73944752	0.20579041	0.061119735	-0.031333316	0.42827115	-0.12666669	-0.36942441	0.39247752	0.13621078	-0.023242749	0.40866344	-0.0057327192	-0.33200761	0.37228445	0.013537566	-0.15870036	0.79336294	-0.18707777	-0.28394022	0.77772582	0.18443646	-0.13736448	0.89708856	-0.10268723	-0.18372976	0.86693009	0.13206906	-0.35562222	0.89651106	-0.029554767	-0.24626017	1.3450665	-0.15826206	-0.2660978	1.3516493	0.16952007	-0.34357295	1.3735948	-0.0039072126	-0.38865549	1.0370836	-0.19660614	-0.32573261	0.99514732	0.21427314	-0.34631633	0.8031258	-0.23921185	-0.10491776	0.87534369	0.2094497
192	0.764	0.041198776	0.016921122	-0.074771604	-0.65353778	0.047071352	0.064933519	-0.093298032	0.04444129	-0.10485976	-0.68671285	0.1822053	0.11189725	-0.089037751	0.063745825	-0.020532099	-0.64769718	0.17150858	0.033840231	-0.16091699	0.015362327	-0.065125699	-0.72691364	0.21223392	0.060997877	-0.028928503	0.42729863	-0.12655889	-0.35614867	0.39072269	0.13704482	-0.021352099	0.40727489	-0.0056910053	-0.31681402	0.36864064	0.014661884	-0.15267041	0.79426078	-0.18786502	-0.27617043	0.77695853	0.18306512	-0.13156619	0.89804817	-0.10353747	-0.17740648	0.86748084	0.1311827	-0.34968823	0.89705109	-0.029029822	-0.23906071	1.3456711	-0.1588096	-0.25980324	1.3521078	0.16868491	-0.3367509	1.3740947	-0.0046960432	-0.38117285	1.0375973	-0.19774282	-0.32126669	0.99617111	0.21352452	-0.33792419	0.80378343	-0.24096484	-0.10089282	0.87506704	0.20988144
193	0.768	0.041230577	0.016864867	-0.074711758	-0.64824474	0.049398959	0.065441463	-0.093056992	0.044217236	-0.10482245	-0.67491301	0.18657044	0.11231574	-0.088928081	0.063455161	-0.020379838	-0.63649659	0.1745191	0.034248761	-0.16093773	0.015316184	-0.065197211	-0.71386749	0.21860475	0.060917139	-0.026388833	0.42643292	-0.12638037	-0.34280269	0.38895892	0.13793551	-0.019630838	0.40590907	-0.0056125513	-0.30150152	0.36511696	0.015755247	-0.14666628	0.79519807	-0.18862804	-0.26861732	0.77620331	0.18180865	-0.1258355	0.8989475	-0.10435217	-0.17124563	0.86809828	0.1304148	-0.3438629	0.89747117	-0.028596709	-0.23178904	1.3462733	-0.15932638	-0.2535705	1.3525505	0.16792069	-0.3299764	1.3746086	-0.0055073662	-0.37369932	1.0381215	-0.19887267	-0.31679442	0.99714391	0.2127742	-0.32937103	0.80452484	-0.24282743	-0.09687811	0.87471747	0.21043282
194	0.772	0.041261093	0.016805851	-0.074621353	-0.64203811	0.05206234	0.066040946	-0.092861716	0.044011807	-0.10478866	-0.66280291	0.19085236	0.11268321	-0.088849845	0.063194443	-0.020247164	-0.62506159	0.17757974	0.034573135	-0.16093309	0.015260922	-0.065264584	-0.70052292	0.22480753	0.060932547	-0.023698925	0.42566214	-0.12615884	-0.32946781	0.38728541	0.13892187	-0.018015325	0.4046342	-0.0054832822	-0.28606025	0.36189912	0.016736028	-0.14070822	0.79616581	-0.18932498	-0.26133689	0.77546983	0.18074083	-0.12018827	0.8997974	-0.10509933	-0.16523854	0.86878239	0.12975456	-0.33825819	0.89783287	-0.028174735	-0.22442858	1.3468842	-0.15981737	-0.24740303	1.3529916	0.16722778	-0.32325856	1.3751382	-0.0063415053	-0.36627026	1.0386544	-0.20019601	-0.31231405	0.99804902	0.21202653	-0.32062749	0.80539191	-0.24486393	-0.092921479	0.87429772	0.21109506
195	0.776	0.041288281	0.016741699	-0.074491932	-0.63472325	0.0551906	0.06682963	-0.092711224	0.043821026	-0.10475117	-0.65062298	0.19514711	0.11295224	-0.088817083	0.062963465	-0.020139931	-0.61347958	0.18072687	0.034845102	-0.16092354	0.015193265	-0.065319281	-0.68717098	0.23069679	0.060997175	-0.02090064	0.42496025	-0.12592687	-0.31620404	0.38580566	0.14002233	-0.016504193	0.40349193	-0.0053257054	-0.27046882	0.35916727	0.017623818	-0.13482524	0.79713757	-0.18992674	-0.25428616	0.77477751	0.17983275	-0.11460756	0.90060412	-0.10576677	-0.1593659	0.86952713	0.12918798	-0.33285897	0.89817087	-0.027722321	-0.21697727	1.3475137	-0.16029007	-0.2413113	1.3534447	0.16660644	-0.31659529	1.3756903	-0.0071922725	-0.35884162	1.0391912	-0.20167054	-0.30782243	0.99888298	0.21129879	-0.31169499	0.8063941	-0.24708025	-0.08904155	0.87381739	0.21186105
196	0.78	0.041311713	0.016680404	-0.07434559	-0.6261793	0.058807342	0.067905602	-0.092561405	0.043653867	-0.1047018	-0.63851937	0.19956366	0.11307397	-0.088833249	0.062764647	-0.020051657	-0.60180032	0.18399766	0.03507877	-0.16093751	0.015120261	-0.06536148	-0.67408576	0.23611844	0.060979692	-0.018058951	0.42430565	-0.12570828	-0.30299227	0.38458468	0.1411773	-0.015132391	0.40249206	-0.0051785263	-0.25484266	0.35706738	0.018448149	-0.12904288	0.79807687	-0.19043814	-0.24745275	0.77415972	0.17908647	-0.10905143	0.90135439	-0.10637878	-0.15360213	0.87031694	0.12869856	-0.32740671	0.89844867	-0.027399049	-0.20948389	1.3481642	-0.16073502	-0.23529482	1.3539129	0.16605326	-0.30998191	1.3762745	-0.0080453632	-0.35132549	1.0397284	-0.20308049	-0.30331535	0.99965873	0.21061116	-0.30263394	0.80745618	-0.24936981	-0.085233903	0.87328849	0.21273284
197	0.784	0.041328444	0.016639447	-0.074234571	-0.61634457	0.062811896	0.069306702	-0.092359668	0.043525008	-0.10463422	-0.62648065	0.20416649	0.11303607	-0.088909603	0.062599471	-0.019962927	-0.58999254	0.18744569	0.035255064	-0.16097704	0.015043213	-0.065406455	-0.66140925	0.24097929	0.060768334	-0.015232127	0.42369047	-0.12551241	-0.28978236	0.38363204	0.14228256	-0.013955529	0.40162555	-0.005081163	-0.23942454	0.35568208	0.01916636	-0.12337662	0.79894898	-0.19088484	-0.24087118	0.77365492	0.17854223	-0.10350375	0.90202453	-0.10697868	-0.14793063	0.87113038	0.12827113	-0.32156246	0.8985895	-0.027481367	-0.20202052	1.3488325	-0.16113396	-0.22935665	1.354393	0.16556864	-0.30341262	1.3768991	-0.0088875963	-0.34369673	1.0402691	-0.2043635	-0.29879056	1.0003988	0.20997195	-0.29352569	0.80845999	-0.25157796	-0.081493223	0.87272309	0.2137118
198	0.788	0.041329467	0.016629289	-0.074198186	-0.60520805	0.067019526	0.070999204	-0.092096762	0.043440216	-0.1045509	-0.61437558	0.20891337	0.11286703	-0.089055649	0.062465725	-0.019863796	-0.57795992	0.19113986	0.035332445	-0.16103102	0.014965565	-0.065466884	-0.6490687	0.24530354	0.060348673	-0.012482417	0.42311427	-0.12534527	-0.27656647	0.38292031	0.14326736	-0.013007077	0.40087654	-0.0050420693	-0.22440059	0.35500934	0.019712894	-0.11783695	0.79972362	-0.19128335	-0.23451507	0.77328139	0.17819145	-0.097988917	0.90260263	-0.10759153	-0.14234733	0.87194868	0.12789858	-0.31532053	0.89858619	-0.028013468	-0.19461432	1.3495165	-0.16148172	-0.22350202	1.3548902	0.16516088	-0.29687342	1.3775765	-0.0097100968	-0.33601514	1.0408151	-0.20568319	-0.29423956	1.0011256	0.20936105	-0.28441459	0.80935193	-0.25362667	-0.077821152	0.87213426	0.21479464
